# Blender 4.1.1
# www.blender.org
mtllib Piso.mtl
o Plane
v -93.660545 0.104714 92.921288
v 96.867500 0.104714 92.921288
v -93.660545 0.104714 -109.873741
v 96.867500 0.104714 -109.873741
v -8.359586 0.104714 -10.365891
v -0.706372 0.104714 -8.930920
v 9.218883 0.104714 -10.605058
v 17.051464 0.104714 -15.448106
v 21.535778 0.104714 -20.350952
v 24.585087 0.104714 -26.808334
v 25.900501 0.104714 -32.787422
v 25.183010 0.104714 -40.918964
v 22.612003 0.104714 -47.495930
v 17.948345 0.104714 -53.833813
v 11.251781 0.104714 -58.437698
v 4.495433 0.104714 -60.530380
v -1.483647 0.104714 -60.948914
v -9.136853 0.104714 -59.334579
v -14.697392 0.104714 -56.524391
v -20.018772 0.104714 -50.904060
v -23.785587 0.104714 -45.522896
v -25.220570 0.104714 -39.543831
v -25.758686 0.104714 -31.113338
v -23.068104 0.104714 -23.280766
v -18.524014 0.104714 -16.763577
v -11.289327 0.104714 -11.382421
vn -0.0000 1.0000 -0.0000
vt -0.001473 0.005978
vt 4.632190 5.162024
vt 4.184023 5.210653
vt -2.088391 0.000118
vt -0.153589 3.848911
vt -0.071532 4.113833
vt 9.584512 0.005978
vt 8.550655 9.013164
vt 5.911592 6.383929
vt 5.860300 6.099814
vt 3.451032 6.190050
vt -0.001473 10.209150
vt 3.519361 5.806535
vt 5.708635 5.789609
vt 5.499757 5.591149
vt 3.763526 5.436263
vt 4.064433 5.233201
vt 5.174833 5.317606
vt 0.999882 2.662616
vt 0.669314 2.683717
vt 0.434869 2.739984
vt 0.615395 4.660091
vt 0.934241 4.688224
vt -2.088392 7.470912
vt 0.357505 4.559279
vt 0.223868 2.887685
vt 0.003490 3.096341
vt 0.108991 4.376412
vt -0.106701 3.314376
vt -0.170000 3.614466
s 0
usemtl Material.002
f 1/1/1 6/2/1 5/3/1
f 3/4/1 16/5/1 15/6/1
f 2/7/1 4/8/1 11/9/1
f 2/7/1 11/9/1 10/10/1
f 23/11/1 3/12/1 1/1/1
f 24/13/1 23/11/1 1/1/1
f 2/7/1 10/10/1 9/14/1
f 2/7/1 9/14/1 8/15/1
f 25/16/1 24/13/1 1/1/1
f 26/17/1 25/16/1 1/1/1
f 1/1/1 2/7/1 8/15/1
f 1/1/1 8/15/1 7/18/1
f 5/3/1 26/17/1 1/1/1
f 1/1/1 7/18/1 6/2/1
f 3/4/1 23/19/1 22/20/1
f 3/4/1 22/20/1 21/21/1
f 12/22/1 11/23/1 4/24/1
f 13/25/1 12/22/1 4/24/1
f 3/4/1 21/21/1 20/26/1
f 3/4/1 20/26/1 19/27/1
f 14/28/1 13/25/1 4/24/1
f 15/6/1 14/28/1 4/24/1
f 3/4/1 19/27/1 18/29/1
f 3/4/1 18/29/1 17/30/1
f 15/6/1 4/24/1 3/4/1
f 3/4/1 17/30/1 16/5/1
